# xmcd
#
# Track frame offsets: 
#        150
#        16317
#        36470
#        54535
#        71564
#        93169
#        113358
#        131264
#        148030
#        162231
#        181103
#        204347
#        217004
#        248911
#        268759
#        288728
#        309111
#        323509
#
# Disc length: 4599 seconds
#
# Revision: 0
# Processed by: cddbd v1.5.2PL0 Copyright (c) Steve Scherf et al.
# Submitted via: ExactAudioCopy v1.3
#
DISCID=fb11f512
DTITLE=Various Artist - Latest and Greatest Hip-Hop
DYEAR=2016
DGENRE=Hip-Hop
TTITLE0=Slam - Onyx
TTITLE1=O.P.P. - Naughty By Nature
TTITLE2=Gangsta's Paradise - Coolio and L.V.
TTITLE3=Paid In Full - Eric B. and Rakim
TTITLE4=Mama Said Knock You Out - LL Cool J
TTITLE5=Push it - Salt 'n' Pepa
TTITLE6=Children's Story - Slick Rick
TTITLE7=Shopping Bags - De La Soul
TTITLE8=Mash out - will.i.am, MC Lyte and Fergie
TTITLE9=So many girls - The Nextmen and Dynamite MC
TTITLE10=Love of da game (Remix) - DJ Jazzy Jeff, Raheem and Erro
TTITLE11=Take It - will.i.am and Krs-One
TTITLE12=The adventures of Grandmaster Flash on the Wheels Of Steel - 
TTITLE12=Grandmaster Flash and The Furious Five
TTITLE13=Apache (Jump on it) - Sugarhill Gang
TTITLE14=White lines (Don't do it) - Grandmaster Melle Mel
TTITLE15=Step off - Grandmaster Melle Mel and The Furious Five
TTITLE16=The message - Grandmaster Flash and The Furious Five
TTITLE17=Rapper's delight - Sugarhill Gang
EXTD=
EXTT0=
EXTT1=
EXTT2=
EXTT3=
EXTT4=
EXTT5=
EXTT6=
EXTT7=
EXTT8=
EXTT9=
EXTT10=
EXTT11=
EXTT12=
EXTT13=
EXTT14=
EXTT15=
EXTT16=
EXTT17=
PLAYORDER=
